<svg xmlns="http://www.w3.org/2000/svg" width="1280" height="720" viewBox="0 0 1280 720">
  <rect width="1280" height="720" fill="#f5f7fa"/>
  <style>
    text{font-family:Arial,'Microsoft YaHei',sans-serif;fill:#172033}
    .box{fill:#fff;stroke:#d9e0ea;stroke-width:2;rx:10}
    .head{font-size:28px;font-weight:800}
    .label{font-size:19px;font-weight:700}
    .small{font-size:15px;fill:#657086}
    .arrow{stroke:#205da8;stroke-width:3;fill:none;marker-end:url(#m)}
  </style>
  <defs><marker id="m" viewBox="0 0 10 10" refX="8" refY="5" markerWidth="7" markerHeight="7" orient="auto-start-reverse"><path d="M0 0L10 5L0 10z" fill="#205da8"/></marker></defs>
  <text x="48" y="58" class="head">知质·灵巡：从感知到行动的质量风险主动管控架构</text>
  <rect x="50" y="100" width="230" height="470" class="box"/>
  <text x="78" y="145" class="label">现场数据源</text>
  <text x="78" y="190" class="small">设备告警 / PLC</text>
  <text x="78" y="225" class="small">工艺参数 / SPC</text>
  <text x="78" y="260" class="small">视觉检测 / X光</text>
  <text x="78" y="295" class="small">MES过站 / 一车一档</text>
  <text x="78" y="330" class="small">维修记录 / FMEA</text>
  <rect x="360" y="100" width="250" height="470" class="box"/>
  <text x="388" y="145" class="label">知识底座</text>
  <text x="388" y="190" class="small">设备-工艺-质量本体</text>
  <text x="388" y="225" class="small">质量问题案例库</text>
  <text x="388" y="260" class="small">控制计划与放行规则</text>
  <text x="388" y="295" class="small">图谱路径与文档证据</text>
  <text x="388" y="330" class="small">因果约束与反事实核查</text>
  <rect x="690" y="100" width="250" height="470" class="box"/>
  <text x="718" y="145" class="label">数字员工引擎</text>
  <text x="718" y="190" class="small">异常主动捕捉</text>
  <text x="718" y="225" class="small">GraphRAG证据检索</text>
  <text x="718" y="260" class="small">风险分级与影响圈定</text>
  <text x="718" y="295" class="small">处置任务编排</text>
  <text x="718" y="330" class="small">关闭校验与知识回写</text>
  <rect x="1010" y="100" width="220" height="470" class="box"/>
  <text x="1038" y="145" class="label">协同执行</text>
  <text x="1038" y="190" class="small">飞书Aily入口</text>
  <text x="1038" y="225" class="small">多维表格事件表</text>
  <text x="1038" y="260" class="small">机器人卡片通知</text>
  <text x="1038" y="295" class="small">班组任务看板</text>
  <text x="1038" y="330" class="small">复盘沉淀</text>
  <path d="M280 335H360" class="arrow"/>
  <path d="M610 335H690" class="arrow"/>
  <path d="M940 335H1010" class="arrow"/>
  <path d="M1120 570C1120 640 430 640 430 570" class="arrow"/>
  <text x="500" y="665" class="small">复检结果、设备维修、责任确认和新根因关系回写知识图谱</text>
</svg>
